<svg width="590" height="152" viewBox="0 0 590 152" fill="none" xmlns="http://www.w3.org/2000/svg">
<path d="M0.0320498 1.33996C0.832821 2.5517 4.0359 3.9654 7.43918 4.57127L13.445 5.78301V75.4581V144.931L6.03783 146.951C-0.168143 148.566 4.0359 148.97 26.4575 149.172C53.8839 149.374 54.2843 149.172 47.6779 145.941C30.2612 137.257 28.8598 112.618 45.4758 103.934L51.4816 100.905L51.882 52.8389L52.4825 4.97518L63.4931 5.58105C94.3228 7.60062 109.337 33.653 106.935 81.7187C105.534 111.608 96.7251 131.198 80.1091 141.498C65.4951 150.788 43.4739 140.892 43.4739 125.139C43.4739 108.377 69.6991 103.328 72.9022 119.283C74.1034 125.341 74.3035 125.543 76.9061 122.11C80.7097 116.657 80.1091 113.426 74.5037 107.973C66.0956 99.2889 49.2795 101.914 42.8733 113.022C38.6692 120.09 38.4691 127.563 42.4729 135.237C47.4777 144.931 56.086 148.364 75.7049 148.364C91.3199 148.364 93.9224 147.759 107.936 140.69C127.955 130.794 138.165 119.283 143.971 100.299C154.581 64.7544 141.368 26.3826 113.541 12.0437C96.3247 3.15757 85.9147 1.54192 41.6721 0.532137C13.445 -0.27569 -0.768721 0.128223 0.0320498 1.33996Z" fill="#44693D"/>
<path d="M174.6 2.34965C162.789 9.21617 162.188 23.3531 173.799 29.2099C184.009 34.6627 195.42 31.6334 199.424 22.7473C202.827 15.2749 202.227 12.2455 195.821 5.78291C189.615 -0.477746 181.807 -1.68949 174.6 2.34965Z" fill="#44693D"/>
<path d="M426.843 4.97524C419.836 11.8418 420.036 22.3435 427.043 27.9983C438.654 37.0864 455.871 30.0179 455.871 16.0829C455.871 1.74394 437.053 -5.5265 426.843 4.97524Z" fill="#44693D"/>
<path d="M475.89 75.6603V149.374H481.496C484.498 149.374 491.705 148.769 497.511 148.163L507.921 146.749V128.169C507.921 112.82 508.522 108.983 511.525 106.358C513.526 104.338 515.729 102.924 516.529 102.924C517.33 102.924 526.539 113.83 537.149 127.159L556.368 151.394H573.184C582.393 151.394 590 150.788 590 150.182C590 149.374 586.196 144.124 581.392 138.469C576.587 132.814 564.776 117.869 554.966 105.146L537.349 82.1229L544.156 76.2662C559.971 62.7351 571.983 54.0509 577.188 52.6372C584.395 50.8196 585.796 46.3766 579.19 46.3766C569.58 46.3766 563.174 50.6177 536.749 74.6505C522.135 87.9797 509.723 98.8853 509.122 98.8853C508.522 98.8853 507.921 82.5268 507.921 62.5331C507.921 23.5555 507.12 19.3144 497.511 10.8322C493.307 6.99504 482.096 1.94613 477.692 1.94613C476.691 1.94613 475.89 35.067 475.89 75.6603Z" fill="#44693D"/>
<path d="M362.981 24.9687C356.375 40.5194 353.773 43.1448 338.758 49.0016C324.945 54.4544 322.142 58.4935 332.552 58.4935H339.559L340.159 97.0673L340.76 135.641L348.167 142.508C360.979 154.221 382.6 151.999 393.611 138.064C399.016 130.996 397.615 129.582 390.608 135.035C384.002 140.286 379.397 140.488 375.193 135.641C372.19 132.41 371.79 126.553 371.79 95.2496V58.4935H384.802C397.415 58.4935 397.815 58.2916 397.815 53.4446C397.815 48.5977 397.415 48.3957 384.802 48.3957H371.79V30.2196C371.79 20.1218 370.989 12.0435 370.188 12.0435C369.187 12.0435 365.984 17.9002 362.981 24.9687Z" fill="#44693D"/>
<path d="M250.673 48.1946C241.665 52.2337 230.854 62.1296 226.85 70.4098C221.645 80.5077 219.243 97.8759 221.445 109.791C226.25 136.248 242.065 149.779 267.89 149.779C284.706 149.779 295.316 144.528 305.126 131.603C314.134 119.687 313.534 117.062 303.925 125.746C294.716 134.026 284.906 136.652 274.897 133.218C268.09 130.997 255.678 118.476 255.678 113.831C255.678 112.619 268.29 107.57 283.705 102.723L311.732 93.8368V87.5762C311.732 79.2959 307.128 66.3707 301.522 58.4944C291.713 45.1653 267.69 40.3183 250.673 48.1946ZM278.5 54.2533C281.503 57.6866 285.707 75.6607 285.707 85.7585C285.707 90.8075 254.277 108.984 252.875 104.541C247.871 88.9898 251.074 62.9374 258.881 55.0611C264.487 49.4063 273.695 49.0024 278.5 54.2533Z" fill="#44693D"/>
<path d="M167.593 100.097V152L175 150.788C184.41 149.173 191.216 144.124 195.821 135.238C199.224 129.179 199.624 123.322 199.624 88.3837V48.3962H183.609H167.593V100.097Z" fill="#44693D"/>
<path d="M421.838 99.8951V151.394H426.843C433.449 151.394 441.457 147.153 447.863 140.286C452.868 135.036 452.868 134.632 453.469 91.6149L454.069 48.3962H438.054H421.838V99.8951Z" fill="#44693D"/>
</svg>
